<svg width="70" height="70" fill="none" xmlns="http://www.w3.org/2000/svg"><rect width="70" height="70" rx="5" fill="#fff"/><path fill-rule="evenodd" clip-rule="evenodd" d="M47.177 54.691l-5.374 3.101c1.932 3.807 5.892 6.72 12.02 6.72 6.27 0 10.937-3.242 10.937-9.163 0-5.497-3.158-7.94-8.768-10.337l-1.65-.705c-2.828-1.221-4.054-2.02-4.054-3.994 0-1.598 1.226-2.82 3.159-2.82 1.886 0 3.11.8 4.242 2.82l5.14-3.29c-2.17-3.806-5.186-5.262-9.382-5.262-5.893 0-9.664 3.759-9.664 8.693 0 5.356 3.158 7.894 7.92 9.914l1.65.705c3.017 1.316 4.808 2.114 4.808 4.37 0 1.88-1.744 3.242-4.479 3.242-3.252 0-5.09-1.691-6.505-3.994zm-23.337.564l-5.374 3.242c1.555 3.289 4.62 6.014 9.9 6.014 5.845 0 9.852-3.101 9.852-9.914v-22.46h-6.6v22.367c0 3.288-1.367 4.134-3.535 4.134-2.263 0-3.206-1.55-4.243-3.383z" fill="#141819"/></svg>