<svg width="64" height="70" fill="none" xmlns="http://www.w3.org/2000/svg"><path d="M29.015.747c1.743-.994 4.013-.998 5.754 0 8.76 4.93 17.524 9.852 26.283 14.784 1.648.925 2.75 2.75 2.733 4.641v29.66c.012 1.968-1.198 3.838-2.937 4.741-8.731 4.903-17.459 9.812-26.19 14.714-1.778 1.013-4.094.935-5.817-.16-2.618-1.512-5.24-3.016-7.858-4.526-.535-.317-1.139-.57-1.516-1.087.334-.448.93-.504 1.416-.7 1.093-.346 2.096-.901 3.1-1.44.254-.173.564-.107.807.048 2.239 1.278 4.458 2.594 6.704 3.86.479.275.964-.09 1.373-.318 8.57-4.823 17.148-9.628 25.716-14.452a.846.846 0 00.467-.834c.006-9.784.001-19.57.003-29.354a.917.917 0 00-.55-.915c-8.7-4.88-17.398-9.768-26.098-14.65a.91.91 0 00-1.025 0c-8.7 4.882-17.395 9.774-26.096 14.654-.355.162-.594.517-.551.911V49.68a.827.827 0 00.473.823c2.321 1.311 4.646 2.613 6.97 3.92 1.308.701 2.915 1.118 4.357.58 1.272-.454 2.164-1.747 2.14-3.093.012-9.727-.006-19.455.01-29.18-.033-.432.379-.79.8-.748a146.53 146.53 0 013.348.003c.466-.01.786.454.729.89-.005 9.788.012 19.577-.008 29.365.003 2.609-1.073 5.447-3.496 6.724-2.985 1.54-6.675 1.213-9.624-.263-2.553-1.27-4.989-2.767-7.497-4.127C1.193 53.676-.012 51.8 0 49.833v-29.66c-.018-1.93 1.128-3.789 2.827-4.7 8.73-4.906 17.459-9.816 26.188-14.725z" fill="#fff"/><path d="M36.631 21.292c3.808-.244 7.884-.144 11.31 1.724 2.653 1.431 4.124 4.436 4.171 7.37-.074.397-.49.615-.87.588-1.104-.002-2.209.015-3.314-.008-.468.018-.74-.412-.8-.825-.317-1.404-1.086-2.795-2.413-3.472-2.038-1.016-4.4-.965-6.622-.944-1.622.086-3.366.226-4.74 1.176-1.055.72-1.376 2.172-1 3.341.356.84 1.33 1.111 2.126 1.361 4.589 1.195 9.452 1.076 13.953 2.65 1.863.64 3.686 1.887 4.324 3.83.834 2.604.469 5.717-1.392 7.808-1.509 1.72-3.706 2.657-5.898 3.165-2.916.648-5.942.664-8.903.377-2.784-.316-5.681-1.045-7.83-2.934-1.839-1.59-2.736-4.066-2.647-6.456.02-.403.425-.685.813-.652 1.112-.009 2.225-.012 3.337.002.445-.032.774.35.797.768.205 1.338.71 2.742 1.882 3.535 2.26 1.453 5.098 1.354 7.687 1.394 2.145-.095 4.553-.123 6.303-1.535.923-.805 1.197-2.153.947-3.312-.27-.978-1.298-1.434-2.18-1.732-4.53-1.427-9.447-.91-13.933-2.523-1.822-.641-3.583-1.853-4.283-3.716-.976-2.638-.529-5.9 1.527-7.92 2.004-2.01 4.897-2.783 7.648-3.06z" fill="#fff"/></svg>