<svg width="79" height="70" fill="none" xmlns="http://www.w3.org/2000/svg"><path d="M78.6 35.008c0-5.207-6.521-10.142-16.518-13.202 2.307-10.19 1.281-18.297-3.237-20.893-1.04-.609-2.259-.897-3.588-.897v3.573c.737 0 1.33.144 1.826.416 2.179 1.25 3.124 6.009 2.387 12.13-.176 1.505-.464 3.091-.817 4.71-3.14-.77-6.569-1.362-10.173-1.747-2.163-2.964-4.406-5.656-6.665-8.01 5.223-4.855 10.125-7.515 13.458-7.515V0c-4.406 0-10.174 3.14-16.005 8.588C33.436 3.172 27.668.064 23.263.064v3.573c3.316 0 8.234 2.644 13.457 7.466a75.683 75.683 0 00-6.616 7.995c-3.621.385-7.05.978-10.19 1.763a48.346 48.346 0 01-.833-4.647c-.753-6.12.176-10.879 2.34-12.144.48-.289 1.105-.417 1.842-.417V.08c-1.346 0-2.564.289-3.621.897-4.502 2.596-5.511 10.687-3.188 20.845C6.489 24.898 0 29.817 0 35.008 0 40.215 6.52 45.15 16.518 48.21c-2.307 10.19-1.282 18.297 3.236 20.893 1.041.609 2.259.897 3.605.897 4.405 0 10.173-3.14 16.005-8.588 5.832 5.416 11.6 8.524 16.005 8.524 1.346 0 2.563-.289 3.62-.897 4.503-2.596 5.512-10.687 3.189-20.845 9.933-3.06 16.421-7.995 16.421-13.186zM57.74 24.321a72.169 72.169 0 01-2.163 6.329 75.764 75.764 0 00-2.099-3.845 86.651 86.651 0 00-2.307-3.75c2.275.337 4.47.754 6.569 1.266zm-7.338 17.064a85.333 85.333 0 01-3.86 6.12 83.35 83.35 0 01-7.242.32c-2.42 0-4.839-.112-7.21-.304a88.345 88.345 0 01-3.877-6.088 83.496 83.496 0 01-3.332-6.377 83.537 83.537 0 013.316-6.393 85.313 85.313 0 013.861-6.12 83.35 83.35 0 017.242-.32c2.419 0 4.838.112 7.21.304a88.329 88.329 0 013.876 6.088 83.444 83.444 0 013.333 6.377 89.706 89.706 0 01-3.317 6.393zm5.175-2.083a68.648 68.648 0 012.211 6.377c-2.099.512-4.31.945-6.6 1.281a88.57 88.57 0 002.306-3.797 90.901 90.901 0 002.083-3.861zM39.332 56.397a66.027 66.027 0 01-4.454-5.127c1.442.064 2.916.112 4.406.112 1.506 0 2.996-.032 4.453-.112a62.518 62.518 0 01-4.405 5.127zm-11.92-9.437a72.307 72.307 0 01-6.569-1.265 72.16 72.16 0 012.163-6.329 75.81 75.81 0 002.099 3.845 106.109 106.109 0 002.307 3.75zm11.84-33.341a66.027 66.027 0 014.453 5.127 99.153 99.153 0 00-4.405-.112c-1.506 0-2.996.032-4.454.112a62.538 62.538 0 014.406-5.127zm-11.856 9.437a88.57 88.57 0 00-4.39 7.642 68.648 68.648 0 01-2.21-6.377c2.098-.496 4.309-.929 6.6-1.265zm-14.499 20.06c-5.671-2.42-9.34-5.593-9.34-8.108 0-2.515 3.669-5.704 9.34-8.107 1.378-.593 2.884-1.122 4.438-1.618.913 3.14 2.115 6.409 3.605 9.757-1.474 3.333-2.66 6.585-3.557 9.71a48.671 48.671 0 01-4.486-1.635zm8.62 22.894c-2.18-1.25-3.125-6.008-2.388-12.128.176-1.506.465-3.092.817-4.71 3.14.769 6.569 1.361 10.174 1.746 2.162 2.964 4.405 5.656 6.664 8.01-5.223 4.855-10.125 7.515-13.457 7.515-.721-.016-1.33-.16-1.81-.433zm38.001-12.208c.753 6.12-.176 10.879-2.339 12.144-.48.289-1.105.417-1.842.417-3.317 0-8.235-2.644-13.458-7.466a75.67 75.67 0 006.617-7.995c3.62-.385 7.05-.977 10.19-1.763.368 1.619.656 3.173.832 4.663zm6.168-10.687c-1.377.593-2.883 1.122-4.437 1.618-.914-3.14-2.115-6.408-3.605-9.757 1.474-3.333 2.66-6.585 3.556-9.71a50.813 50.813 0 014.502 1.635c5.672 2.42 9.34 5.592 9.34 8.107-.015 2.515-3.684 5.704-9.356 8.107z" fill="#fff"/><path d="M39.283 42.33a7.322 7.322 0 100-14.644 7.322 7.322 0 000 14.644z" fill="#fff"/></svg>