<svg width="70" height="70" fill="none" xmlns="http://www.w3.org/2000/svg"><rect width="70" height="70" rx="5" fill="#fff"/><path d="M16.604 35.528v2.82h8.89v25.598h6.31V38.347h8.89V35.58c0-1.557 0-2.82-.068-2.854 0-.052-5.42-.07-12.003-.07l-11.968.053v2.836l-.051-.017zm39.957-2.889c1.744.416 3.078 1.211 4.274 2.474.633.692 1.573 1.903 1.642 2.214 0 .104-2.958 2.127-4.753 3.252-.069.051-.342-.243-.616-.692-.889-1.28-1.795-1.834-3.214-1.938-2.052-.138-3.42.952-3.42 2.768 0 .553.103.865.308 1.315.462.95 1.316 1.522 3.967 2.698 4.89 2.127 7.01 3.528 8.292 5.535 1.453 2.248 1.778 5.777.803 8.423-1.094 2.889-3.761 4.843-7.574 5.483-1.197.208-3.932.173-5.215-.052-2.735-.519-5.351-1.902-6.958-3.684-.633-.692-1.847-2.543-1.779-2.664l.65-.415 2.565-1.505 1.932-1.141.444.605c.565.9 1.83 2.11 2.565 2.526 2.223 1.158 5.198 1.003 6.668-.346.633-.588.906-1.211.906-2.076 0-.796-.12-1.159-.513-1.764-.547-.761-1.64-1.384-4.718-2.768-3.54-1.522-5.044-2.49-6.446-3.978-.804-.9-1.54-2.3-1.881-3.46-.257-1.002-.342-3.459-.103-4.444.736-3.46 3.317-5.881 7.01-6.573 1.197-.242 4.018-.138 5.198.173l-.034.035z" fill="#141819"/></svg>